<?xml version="1.0" encoding="UTF-8" standalone="no"?><!DOCTYPE svg PUBLIC "-//W3C//DTD SVG 1.1//EN" "http://www.w3.org/Graphics/SVG/1.1/DTD/svg11.dtd"><svg width="100%" height="100%" viewBox="0 0 1468 2071" version="1.1" xmlns="http://www.w3.org/2000/svg" xmlns:xlink="http://www.w3.org/1999/xlink" xml:space="preserve" xmlns:serif="http://www.serif.com/" style="fill-rule:evenodd;clip-rule:evenodd;stroke-linejoin:round;stroke-miterlimit:1.41421;"><g><path d="M133.522,1904.61l-133.522,-1497.63l1467.19,0l-133.667,1497.39l-600.829,166.572l-599.175,-166.335Z" style="fill:#1ec292;fill-rule:nonzero;"/><path d="M733.597,1943.63l485.499,-134.598l114.227,-1279.59l-599.726,0l0,1414.19Z" style="fill:#8edcc2;fill-rule:nonzero;"/><path d="M316.733,1217.39l417.574,0l-0.71,-153.493l-431.482,0" style="fill:#ebebec;fill-rule:nonzero;"/><path d="M733.597,883.605l0.71,-170.481l-461.429,-0.068l15.431,170.549" style="fill:#ebebec;fill-rule:nonzero;"/><path d="M733.597,883.605l0,-170.549l459.476,0.068l-16.286,183.678" style="fill:#fafafa;fill-rule:nonzero;"/><path d="M316.733,1217.39l-14.618,-153.493l890.958,-350.844l-16.286,183.746" style="fill:#fff;fill-rule:nonzero;"/><path d="M733.597,1561.92l-0.806,0.216l-204.56,-55.238l-13.082,-146.49l-99.399,0l-84.983,0l25.734,288.4l376.25,104.451l0.846,-0.236l0,-191.103Z" style="fill:#ebebec;fill-rule:nonzero;"/><path d="M607.6,0l97.332,0l59.871,98.126l59.811,-98.126l97.368,0l0,279.274l-92.959,0l0,-138.426l-64.22,99.297l-1.604,0l-64.264,-99.297l0,138.426l-91.335,0l0,-279.274Z" style="fill:#030404;fill-rule:nonzero;"/><path d="M245.939,0l97.331,0l59.871,98.126l59.811,-98.126l97.368,0l0,279.274l-92.959,0l0,-138.426l-64.22,99.297l-1.604,0l-64.263,-99.297l0,138.426l-91.335,0l0,-279.274Z" style="fill:#030404;fill-rule:nonzero;"/><path d="M968.436,0l93.372,0l0,186.961l131.265,0l0,92.313l-224.637,0l0,-279.274Z" style="fill:#030404;fill-rule:nonzero;"/><path d="M732.96,1063.9l0.637,153.493l230.12,0l-25.898,289.389l-204.859,55.293l0,191.095l376.548,-104.363l2.761,-31.03l49.552,-553.877l-428.861,0Z" style="fill:#fff;fill-rule:nonzero;"/></g><path id="Jump-Down-Icon" serif:id="Jump Down Icon" d="M1408.85,1460.96c-204.426,255.042 -577.513,293.672 -577.513,293.672c-4.7,-74.98 8.061,-93.68 17.599,-122.765c-132.531,110.326 -285.384,169.354 -443.632,182.66c143.064,133.466 294.39,210.183 516.359,230.858c-21.934,-23.428 -46.971,-35.264 -58.433,-97.814c0,0 474.523,-54.327 545.62,-486.611Z" style="fill:#f8f000;"/><path id="Jump-Down-Icon1" serif:id="Jump Down Icon" d="M15.961,954.186c208.895,-260.618 590.138,-300.093 590.138,-300.093c4.803,76.619 -8.237,95.728 -17.984,125.449c135.429,-112.738 291.623,-173.056 453.331,-186.653c-146.192,-136.384 -300.826,-214.778 -527.648,-235.906c22.414,23.941 47.998,36.036 59.711,99.953c0,0 -484.897,55.515 -557.548,497.25Z" style="fill:#ff6208;"/></svg>
