<?xml version="1.0" encoding="UTF-8" standalone="no"?><!DOCTYPE svg PUBLIC "-//W3C//DTD SVG 1.1//EN" "http://www.w3.org/Graphics/SVG/1.1/DTD/svg11.dtd"><svg width="100%" height="100%" viewBox="0 0 1468 2030" version="1.1" xmlns="http://www.w3.org/2000/svg" xmlns:xlink="http://www.w3.org/1999/xlink" xml:space="preserve" xmlns:serif="http://www.serif.com/" style="fill-rule:evenodd;clip-rule:evenodd;stroke-linejoin:round;stroke-miterlimit:1.41421;"><g><path d="M133.522,1863.14l-133.522,-1497.63l1467.19,0l-133.667,1497.39l-600.829,166.573l-599.175,-166.336Z" style="fill:#00c992;fill-rule:nonzero;"/><path d="M733.597,1902.15l485.499,-134.598l114.227,-1279.59l-599.726,0l0,1414.19Z" style="fill:#b5e5c9;fill-rule:nonzero;"/><path d="M316.733,1394.86l417.574,0l-0.779,-133.862l-433.223,0" style="fill:#ebebec;fill-rule:nonzero;"/><path d="M733.597,1077l0.71,-155.97l-461.429,-0.053l17.76,156.023" style="fill:#ebebec;fill-rule:nonzero;"/><path d="M733.597,1077l0,-156.023l459.476,0.053l-17.399,155.97" style="fill:#fafafa;fill-rule:nonzero;"/><path d="M316.733,1394.86l-16.428,-133.862l892.768,-340.023l-16.768,156.023" style="fill:#fff;fill-rule:nonzero;"/><path d="M732.96,1261l0.637,133.862l269.708,0l-13,201.877l-256.708,59.261l0,164.714l393.708,-104.57l35.44,-455.144l-429.785,0Z" style="fill:#fff;fill-rule:nonzero;"/><path d="M320.696,1486l148.609,0l6,113.746l258.292,56.254l0,164.714l-394.981,-104.57l-17.92,-230.144Z" style="fill:#ebebec;fill-rule:nonzero;"/><path d="M733.551,809.145l-59.566,-99.297l0,138.426l-82.597,0l-9.083,-279.274l97.102,0l54.144,98.126" style="fill:#ebebec;fill-rule:nonzero;"/><path d="M733.551,667.126l52.764,-98.126l96.99,0l-11.093,279.274l-82.007,0l0,-138.426l-56.654,99.297" style="fill:#fff;fill-rule:nonzero;"/><path d="M224.305,569l103.522,0l59.549,98l57.716,-98l87.948,0l8.029,279.274l-85.163,0l-10.814,-138.426l-50.387,99.152l-1.47,0l-65.408,-99.152l8.902,138.426l-83.674,0l-28.75,-279.274Z" style="fill:#ebebec;fill-rule:nonzero;"/><path d="M932.426,569l104,0l-9.759,186.961l158.759,0l-9.232,92.313l-255.889,0l12.121,-279.274Z" style="fill:#fff;fill-rule:nonzero;"/></g><path id="Jump-Down-Icon" serif:id="Jump Down Icon" d="M23.305,878.444c226.019,-239.561 627.299,-284.836 627.299,-284.836c3.072,68.727 -11.109,86.233 -22.107,113.191c145.085,-104.788 310.623,-163.006 480.749,-179.382c-149.98,-118.795 -310.313,-185.264 -547.909,-198.417c22.916,20.937 49.466,31.147 60.12,88.282c0,0 -510.518,62.353 -598.152,461.162Z" style="fill:#ff5a19;"/><path id="Jump-Down-Icon1" serif:id="Jump Down Icon" d="M1395.7,1401c-201.5,260.523 -596.426,344.835 -596.426,344.835c-9.781,-68.096 2.62,-86.906 10.928,-114.81c-134.138,118.478 -293.187,192.61 -460.895,225.55c160.881,103.554 326.948,154.019 564.691,143.867c-24.855,-18.595 -52.276,-26.159 -68.468,-81.978c0,0 501.97,-111.995 550.17,-517.464Z" style="fill:#f8f026;"/><g><path d="M134.465,0l97.331,0l59.872,98.126l59.81,-98.126l97.369,0l0,279.274l-92.96,0l0,-138.426l-64.219,99.297l-1.604,0l-64.264,-99.297l0,138.426l-91.335,0l0,-279.274Z" style="fill:#231f20;fill-rule:nonzero;"/><path d="M497.448,0l97.331,0l59.872,98.126l59.81,-98.126l97.369,0l0,279.274l-92.959,0l0,-138.426l-64.22,99.297l-1.604,0l-64.264,-99.297l0,138.426l-91.335,0l0,-279.274Z" style="fill:#231f20;fill-rule:nonzero;"/><path d="M858.227,0l93.372,0l0,186.961l131.265,0l0,92.313l-224.637,0l0,-279.274Z" style="fill:#231f20;fill-rule:nonzero;"/><path d="M1128.09,279.274l93.372,0l0,-186.961l113.013,0l0,-92.313l-319,0l0,92.313l112.615,0l0,186.961Z" style="fill:#231f20;fill-rule:nonzero;"/></g></svg>
